version = 1
nColumns = 19
nRows = 30
inDegrees = yes
endheader 
time	r_ground_force_vx	r_ground_force_vy	r_ground_force_vz	r_ground_force_px	r_ground_force_py	r_ground_force_pz	l_ground_force_vx	l_ground_force_vy	l_ground_force_vz	l_ground_force_px	l_ground_force_py	l_ground_force_pz	r_ground_torque_x	r_ground_torque_y	r_ground_torque_z	l_ground_torque_x	l_ground_torque_y	l_ground_torque_z	
          0.14039858	         92.03393624	        568.87262155	        -25.71444408	          0.24745567	          0.00000000	          0.06281552	          0.00000000	          0.00000000	          0.00000000	          0.00000000	          0.00000000	          0.00000000	          0.00000000	         -0.84262164	          0.00000000	          0.00000000	          0.00000000	          0.00000000	
          0.14126934	         92.01533285	        561.35300816	        -25.63156612	          0.24805227	          0.00000000	          0.06328906	          0.00000000	          0.00000000	          0.00000000	          0.00000000	          0.00000000	          0.00000000	          0.00000000	         -0.75556125	          0.00000000	          0.00000000	          0.00000000	          0.00000000	
          0.14402058	         92.15391354	        537.07389646	        -25.33714407	          0.25002425	          0.00000000	          0.06485241	          0.00000000	          0.00000000	          0.00000000	          0.00000000	          0.00000000	          0.00000000	          0.00000000	         -0.48353803	          0.00000000	          0.00000000	          0.00000000	          0.00000000	
          0.14601452	         92.14325821	        519.29086335	        -25.12396299	          0.25152990	          0.00000000	          0.06604594	          0.00000000	          0.00000000	          0.00000000	          0.00000000	          0.00000000	          0.00000000	          0.00000000	         -0.29136605	          0.00000000	          0.00000000	          0.00000000	          0.00000000	
          0.14688528	         92.10391515	        511.48802720	        -25.02902063	          0.25220863	          0.00000000	          0.06658378	          0.00000000	          0.00000000	          0.00000000	          0.00000000	          0.00000000	          0.00000000	          0.00000000	         -0.20905040	          0.00000000	          0.00000000	          0.00000000	          0.00000000	
          0.14963652	         92.13075954	        486.27782604	        -24.68500415	          0.25446712	          0.00000000	          0.06836910	          0.00000000	          0.00000000	          0.00000000	          0.00000000	          0.00000000	          0.00000000	          0.00000000	          0.04169064	          0.00000000	          0.00000000	          0.00000000	          0.00000000	
          0.15163047	         92.07405835	        467.71970045	        -24.41579257	          0.25621000	          0.00000000	          0.06974730	          0.00000000	          0.00000000	          0.00000000	          0.00000000	          0.00000000	          0.00000000	          0.00000000	          0.21574375	          0.00000000	          0.00000000	          0.00000000	          0.00000000	
          0.15250122	         92.06380894	        459.52957538	        -24.30427957	          0.25700233	          0.00000000	          0.07037501	          0.00000000	          0.00000000	          0.00000000	          0.00000000	          0.00000000	          0.00000000	          0.00000000	          0.29146089	          0.00000000	          0.00000000	          0.00000000	          0.00000000	
          0.15525246	         92.28743039	        433.11886955	        -24.02445190	          0.25965958	          0.00000000	          0.07248995	          0.00000000	          0.00000000	          0.00000000	          0.00000000	          0.00000000	          0.00000000	          0.00000000	          0.54305050	          0.00000000	          0.00000000	          0.00000000	          0.00000000	
          0.15724641	         92.38838202	        413.74334439	        -23.89879084	          0.26173742	          0.00000000	          0.07415928	          0.00000000	          0.00000000	          0.00000000	          0.00000000	          0.00000000	          0.00000000	          0.00000000	          0.73723313	          0.00000000	          0.00000000	          0.00000000	          0.00000000	
          0.15811717	         92.40121601	        405.16209454	        -23.86424060	          0.26269544	          0.00000000	          0.07493757	          0.00000000	          0.00000000	          0.00000000	          0.00000000	          0.00000000	          0.00000000	          0.00000000	          0.82768002	          0.00000000	          0.00000000	          0.00000000	          0.00000000	
          0.16086841	         92.05502307	        379.06513649	        -23.52545143	          0.26577021	          0.00000000	          0.07731403	          0.00000000	          0.00000000	          0.00000000	          0.00000000	          0.00000000	          0.00000000	          0.00000000	          1.05996423	          0.00000000	          0.00000000	          0.00000000	          0.00000000	
          0.16286235	         92.00215403	        362.74915366	        -21.48536965	          0.26741181	          0.00000000	          0.07815967	          0.00000000	          0.00000000	          0.00000000	          0.00000000	          0.00000000	          0.00000000	          0.00000000	          1.03722807	          0.00000000	          0.00000000	          0.00000000	          0.00000000	
          0.16373311	         91.97102008	        355.79405990	        -19.89063943	          0.26792979	          0.00000000	          0.07825150	          0.00000000	          0.00000000	          0.00000000	          0.00000000	          0.00000000	          0.00000000	          0.00000000	          0.97377183	          0.00000000	          0.00000000	          0.00000000	          0.00000000	
          0.16648435	         92.25064564	        333.04735450	        -15.58673493	          0.26976321	          0.00000000	          0.07888929	          0.00000000	          0.00000000	          0.00000000	          0.00000000	          0.00000000	          0.00000000	          0.00000000	          0.85091783	          0.00000000	          0.00000000	          0.00000000	          0.00000000	
          0.16847829	         92.72939940	        318.22239710	        -13.55025733	          0.27076220	          0.00000000	          0.07958112	          0.00000000	          0.00000000	          0.00000000	          0.00000000	          0.00000000	          0.00000000	          0.00000000	          0.81024422	          0.00000000	          0.00000000	          0.00000000	          0.00000000	
          0.16934905	         93.01260806	        313.00521390	        -13.23617669	          0.27084560	          0.00000000	          0.07998063	          0.00000000	          0.00000000	          0.00000000	          0.00000000	          0.00000000	          0.00000000	          0.00000000	          0.80783270	          0.00000000	          0.00000000	          0.00000000	          0.00000000	
          0.17210029	         93.48980485	        296.52052669	        -12.43003946	          0.27098504	          0.00000000	          0.08126224	          0.00000000	          0.00000000	          0.00000000	          0.00000000	          0.00000000	          0.00000000	          0.00000000	          0.79725311	          0.00000000	          0.00000000	          0.00000000	          0.00000000	
          0.17409424	         93.55404339	        284.61363367	        -11.78411814	          0.27116450	          0.00000000	          0.08214955	          0.00000000	          0.00000000	          0.00000000	          0.00000000	          0.00000000	          0.00000000	          0.00000000	          0.78197712	          0.00000000	          0.00000000	          0.00000000	          0.00000000	
          0.17496500	         93.53253933	        279.62296689	        -11.52327176	          0.27124830	          0.00000000	          0.08252680	          0.00000000	          0.00000000	          0.00000000	          0.00000000	          0.00000000	          0.00000000	          0.00000000	          0.77439135	          0.00000000	          0.00000000	          0.00000000	          0.00000000	
          0.17771623	         92.31403781	        265.02621681	        -10.82809419	          0.27149873	          0.00000000	          0.08365521	          0.00000000	          0.00000000	          0.00000000	          0.00000000	          0.00000000	          0.00000000	          0.00000000	          0.75152408	          0.00000000	          0.00000000	          0.00000000	          0.00000000	
          0.17971018	         90.62574654	        255.39693324	        -10.39991601	          0.27167322	          0.00000000	          0.08441657	          0.00000000	          0.00000000	          0.00000000	          0.00000000	          0.00000000	          0.00000000	          0.00000000	          0.73694808	          0.00000000	          0.00000000	          0.00000000	          0.00000000	
          0.18058094	         89.74259173	        251.38567300	        -10.22516507	          0.27174962	          0.00000000	          0.08473536	          0.00000000	          0.00000000	          0.00000000	          0.00000000	          0.00000000	          0.00000000	          0.00000000	          0.73121025	          0.00000000	          0.00000000	          0.00000000	          0.00000000	
          0.18333218	         86.71960038	        239.11588511	         -9.65698763	          0.27200500	          0.00000000	          0.08569484	          0.00000000	          0.00000000	          0.00000000	          0.00000000	          0.00000000	          0.00000000	          0.00000000	          0.71360282	          0.00000000	          0.00000000	          0.00000000	          0.00000000	
          0.18532612	         84.37698870	        230.50206342	         -9.20821803	          0.27220586	          0.00000000	          0.08634984	          0.00000000	          0.00000000	          0.00000000	          0.00000000	          0.00000000	          0.00000000	          0.00000000	          0.70025426	          0.00000000	          0.00000000	          0.00000000	          0.00000000	
          0.18619688	         83.33230627	        226.78741715	         -8.99910528	          0.27229846	          0.00000000	          0.08662647	          0.00000000	          0.00000000	          0.00000000	          0.00000000	          0.00000000	          0.00000000	          0.00000000	          0.69408049	          0.00000000	          0.00000000	          0.00000000	          0.00000000	
          0.18894812	         79.98784418	        215.22153905	         -8.28571123	          0.27261191	          0.00000000	          0.08746622	          0.00000000	          0.00000000	          0.00000000	          0.00000000	          0.00000000	          0.00000000	          0.00000000	          0.67540434	          0.00000000	          0.00000000	          0.00000000	          0.00000000	
          0.19094207	         77.50717685	        206.98827942	         -7.71739594	          0.27285835	          0.00000000	          0.08804517	          0.00000000	          0.00000000	          0.00000000	          0.00000000	          0.00000000	          0.00000000	          0.00000000	          0.66245706	          0.00000000	          0.00000000	          0.00000000	          0.00000000	
          0.19181282	         76.40743659	        203.42513626	         -7.45437195	          0.27297101	          0.00000000	          0.08829087	          0.00000000	          0.00000000	          0.00000000	          0.00000000	          0.00000000	          0.00000000	          0.00000000	          0.65677980	          0.00000000	          0.00000000	          0.00000000	          0.00000000	
          0.19456406	         72.86540975	        192.33939402	         -6.56888312	          0.27334712	          0.00000000	          0.08903194	          0.00000000	          0.00000000	          0.00000000	          0.00000000	          0.00000000	          0.00000000	          0.00000000	          0.63750158	          0.00000000	          0.00000000	          0.00000000	          0.00000000	
